<svg width="376" height="126" viewBox="0 0 376 126" fill="none" xmlns="http://www.w3.org/2000/svg">
<path d="M114.876 19.1846H105.914H94.7796H61.7829C56.3514 19.1846 51.5988 22.5622 49.6977 27.5611L29.0578 83.9003C27.1568 88.8993 22.4042 92.2769 16.9726 92.2769H25.9347H35.4399H70.2018C75.6334 92.2769 80.386 88.8993 82.287 83.9003L102.927 27.5611C104.692 22.5622 109.581 19.1846 114.876 19.1846Z" fill="#CAAC77"/>
<path d="M45.8966 26.2106C48.3408 19.5904 54.7229 15.267 61.6481 15.267H66.9439L70.067 6.8904C71.5607 2.83723 75.4986 0 79.8438 0H72.5112H63.4134H36.5272C32.182 0 28.2441 2.70212 26.7504 6.8904L9.7768 52.8264C8.28312 56.8796 4.34524 59.7168 0 59.7168H7.3326H15.0726H33.6756L45.8966 26.2106Z" fill="#E0D2B6"/>
<path d="M129.679 44.4502H131.309C132.395 44.4502 133.345 44.5853 134.296 44.8555C135.246 45.1257 135.925 45.531 136.604 46.2066C137.283 46.747 137.826 47.5576 138.098 48.3683C138.505 49.1789 138.641 50.1246 138.641 51.2055C138.641 52.2863 138.505 53.2321 138.098 54.1778C137.691 54.9885 137.147 55.7991 136.469 56.3395C135.79 56.8799 134.975 57.4204 134.16 57.6906C133.21 57.9608 132.259 58.0959 131.309 58.0959H129.679V60.3927H125.605V58.0959H123.976C122.89 58.0959 121.939 57.9608 120.989 57.6906C120.038 57.4204 119.359 57.015 118.68 56.3395C118.001 55.7991 117.594 54.9885 117.186 54.1778C116.779 53.3672 116.643 52.4214 116.643 51.3406C116.643 50.2598 116.779 49.314 117.186 48.3683C117.594 47.5576 118.137 46.747 118.816 46.2066C119.495 45.6662 120.31 45.1257 121.124 44.8555C122.075 44.5853 122.89 44.4502 123.976 44.4502H125.605V42.0183H129.679V44.4502ZM124.112 47.963C123.025 47.963 122.075 48.2332 121.532 48.9087C120.989 49.4491 120.581 50.3949 120.581 51.3406C120.581 52.4214 120.853 53.2321 121.532 53.7725C122.211 54.3129 123.025 54.5831 124.112 54.5831H125.605V47.963H124.112ZM131.037 54.7182C132.123 54.7182 133.074 54.448 133.617 53.7725C134.16 53.2321 134.567 52.2863 134.567 51.3406C134.567 50.2598 134.296 49.4491 133.617 48.9087C132.938 48.3683 132.123 48.0981 131.037 48.0981H129.543V54.7182H131.037Z" fill="#3F3E3E"/>
<path d="M155.48 42.8289C156.702 43.3693 157.653 43.9097 158.467 44.8555C159.282 45.6661 159.961 46.7469 160.368 47.8278C160.776 48.9086 161.047 50.2597 161.047 51.6108C161.047 52.9618 160.776 54.1778 160.368 55.2586C159.961 56.3395 159.282 57.4203 158.331 58.2309C157.517 59.0416 156.43 59.7171 155.344 60.2575C154.122 60.798 152.9 60.9331 151.406 60.9331C150.048 60.9331 148.69 60.6629 147.604 60.2575C146.382 59.7171 145.432 59.1767 144.617 58.2309C143.802 57.4203 143.123 56.3395 142.58 55.2586C142.173 54.1778 141.901 52.8267 141.901 51.6108C141.901 50.2597 142.173 49.0437 142.58 47.9629C142.987 46.882 143.666 45.8012 144.617 44.9906C145.432 44.1799 146.518 43.5044 147.604 42.964C148.826 42.4235 150.048 42.2884 151.406 42.2884C153.036 42.1533 154.258 42.2884 155.48 42.8289ZM149.234 46.2065C148.555 46.4767 148.012 46.882 147.468 47.4225C146.925 47.9629 146.654 48.5033 146.382 49.314C146.11 49.9895 145.975 50.8001 145.975 51.6108C145.975 52.4214 146.11 53.232 146.382 53.9076C146.654 54.5831 147.061 55.2586 147.468 55.799C148.012 56.3395 148.555 56.7448 149.234 57.015C149.913 57.2852 150.727 57.4203 151.542 57.4203C152.357 57.4203 153.171 57.2852 153.85 57.015C154.529 56.7448 155.073 56.3395 155.616 55.799C156.159 55.2586 156.43 54.7182 156.702 53.9076C156.974 53.232 157.109 52.4214 157.109 51.7459C157.109 50.9352 156.974 50.1246 156.702 49.4491C156.43 48.7735 156.023 48.098 155.616 47.5576C155.073 47.0171 154.529 46.6118 153.85 46.3416C153.171 46.0714 152.357 45.9363 151.542 45.9363C150.727 45.6661 149.913 45.8012 149.234 46.2065Z" fill="#3F3E3E"/>
<path d="M169.329 49.5842H177.205V42.5587H181.279V60.5278H177.205V53.3672H169.329V60.5278H165.255V42.4236H169.329V49.5842Z" fill="#3F3E3E"/>
<path d="M202.869 56.8799H205.449V57.9608L205.042 64.3108H201.376L201.24 60.5278H189.019L188.747 64.3108H185.081L184.809 58.0959V57.015H185.624C186.031 57.015 186.439 56.8799 186.71 56.6097C187.118 56.3395 187.389 55.9342 187.661 55.3938C188.204 54.3129 188.476 52.9619 188.747 51.2055C189.019 49.4491 189.019 47.6927 189.019 45.531V42.5587H202.733V56.8799H202.869ZM192.821 52.5565C192.549 54.3129 192.142 55.7991 191.599 56.7448H198.931V45.9364H193.364C193.228 48.6385 193.092 50.8002 192.821 52.5565Z" fill="#3F3E3E"/>
<path d="M133.344 92.683H129.271V78.4969H121.667V92.8181H117.593V74.7139H133.344V92.683Z" fill="#3F3E3E"/>
<path d="M149.367 75.2544C150.182 75.5246 150.996 76.065 151.675 76.6054C152.354 77.1459 152.762 77.8214 153.169 78.632C153.576 79.4427 153.712 80.2533 153.712 81.3341C153.712 82.415 153.576 83.3607 153.169 84.1714C152.762 84.982 152.219 85.6575 151.54 86.198C150.861 86.7384 150.046 87.1437 149.095 87.549C148.145 87.8192 147.194 87.9543 146.108 87.9543H142.442V92.8181H138.368V74.7139H146.38C147.466 74.7139 148.417 74.8491 149.367 75.2544ZM146.108 84.1714C147.194 84.1714 148.009 83.9012 148.688 83.3607C149.231 82.8203 149.639 82.1448 149.639 81.199C149.639 80.2533 149.367 79.5778 148.824 79.0373C148.281 78.4969 147.466 78.2267 146.38 78.2267H142.578V84.1714H146.108Z" fill="#3F3E3E"/>
<path d="M170.959 78.3618H161.453V81.7395H170.008V85.2522H161.453V89.0352H171.502V92.683H157.516V74.7139H171.094V78.3618H170.959Z" fill="#3F3E3E"/>
<path d="M184.944 81.3342C185.351 81.064 185.487 80.6586 185.487 80.1182C185.487 79.4427 185.216 78.9023 184.808 78.6321C184.265 78.2267 183.586 78.0916 182.5 78.0916C180.87 78.0916 179.241 78.6321 177.747 79.848L175.575 77.1459C176.525 76.3353 177.611 75.6597 178.833 75.2544C180.056 74.8491 181.278 74.5789 182.636 74.5789C183.722 74.5789 184.672 74.714 185.487 74.9842C186.302 75.2544 187.117 75.5246 187.66 76.065C188.203 76.4704 188.746 77.0108 189.018 77.6863C189.289 78.3618 189.425 79.0374 189.425 79.7129C189.425 80.5235 189.289 81.1991 189.018 81.7395C188.746 82.415 188.203 82.8203 187.66 83.2257V83.4959C188.474 83.7661 189.153 84.3065 189.697 84.982C190.24 85.6576 190.376 86.4682 190.376 87.5491C190.376 88.3597 190.24 89.1703 189.832 89.8459C189.561 90.5214 189.018 91.1969 188.339 91.7373C187.66 92.2778 186.845 92.6831 185.894 92.9533C184.944 93.2235 183.722 93.3586 182.5 93.3586C181.685 93.3586 181.006 93.3586 180.327 93.2235C179.648 93.0884 178.969 92.9533 178.29 92.8182C177.611 92.548 177.068 92.2778 176.525 92.0075C175.982 91.7373 175.439 91.332 174.76 90.7916L176.932 87.8193C177.883 88.4948 178.833 89.0352 179.784 89.4405C180.735 89.7107 181.685 89.8459 182.907 89.8459C184.129 89.8459 184.944 89.5756 185.623 89.1703C186.302 88.765 186.438 88.0895 186.438 87.4139C186.438 86.198 185.623 85.5225 183.993 85.5225H179.377V82.0097H183.45C184.129 81.7395 184.672 81.6044 184.944 81.3342Z" fill="#3F3E3E"/>
<path d="M198.522 86.7384L207.213 74.7139H210.743V92.683H206.67V81.3341L198.386 92.683H194.449V74.7139H198.386V86.7384H198.522Z" fill="#3F3E3E"/>
<path d="M232.471 89.0352H235.051V90.116L234.643 96.466H230.977L230.841 92.683H218.62L218.349 96.466H214.682L214.411 90.2511V89.1703H215.226C215.633 89.1703 216.04 89.0352 216.312 88.765C216.719 88.4948 216.991 88.0894 217.262 87.549C217.806 86.4682 218.077 85.1171 218.349 83.3607C218.62 81.6044 218.62 79.7129 218.62 77.6863V74.7139H232.335V89.0352H232.471ZM222.287 84.8469C222.015 86.6033 221.608 88.0894 221.064 89.0352H228.397V78.2267H222.694C222.694 80.9288 222.558 83.0905 222.287 84.8469Z" fill="#3F3E3E"/>
<path d="M252.432 78.3618H242.926V81.7395H251.481V85.2522H242.926V89.0352H252.975V92.683H238.989V74.7139H252.567V78.3618H252.432Z" fill="#3F3E3E"/>
<path d="M261.258 81.7395H269.134V74.7139H273.207V92.683H269.134V85.5224H261.258V92.683H257.184V74.7139H261.258V81.7395Z" fill="#3F3E3E"/>
<path d="M293.304 78.3618H287.058V92.683H282.985V78.3618H277.01V74.7139H293.304V78.3618Z" fill="#3F3E3E"/>
<path d="M308.512 78.4969C307.697 78.2267 306.747 78.0915 305.796 78.0915C304.982 78.0915 304.167 78.2267 303.352 78.4969C302.673 78.7671 301.994 79.1724 301.587 79.7128C301.044 80.2532 300.636 80.7937 300.365 81.4692C300.093 82.1447 299.957 82.9554 299.957 83.766C299.957 84.5766 300.093 85.3873 300.365 86.0628C300.636 86.7383 301.044 87.4139 301.587 87.8192C302.13 88.3596 302.673 88.6298 303.352 89.0351C304.031 89.3053 304.846 89.4404 305.661 89.4404C306.747 89.4404 307.697 89.3053 308.512 88.9C309.463 88.4947 310.142 88.0894 310.956 87.4139L313.265 90.2511C311.228 92.1426 308.648 93.0883 305.525 93.0883C304.167 93.0883 302.809 92.8181 301.723 92.4128C300.501 92.0075 299.55 91.3319 298.735 90.5213C297.921 89.7107 297.242 88.7649 296.834 87.549C296.427 86.4681 296.155 85.1171 296.155 83.766C296.155 82.4149 296.427 81.199 296.834 80.1181C297.242 79.0373 297.921 77.9564 298.871 77.1458C299.686 76.3352 300.772 75.6596 301.994 75.1192C303.216 74.5788 304.574 74.4437 306.204 74.4437C307.562 74.4437 308.92 74.7139 310.006 75.1192C311.228 75.5245 312.178 76.2001 313.129 77.0107L310.956 79.983C310.142 79.1724 309.327 78.7671 308.512 78.4969Z" fill="#3F3E3E"/>
<path d="M321.005 81.6044L323.042 81.3341L328.202 74.7139H333.226L326.572 83.0905L333.905 92.683H328.609L323.042 84.982H321.005V92.683H317.067V74.7139H321.005V81.6044Z" fill="#3F3E3E"/>
<path d="M341.373 86.7384L350.063 74.7139H353.594V92.683H349.52V81.3341L341.237 92.683H337.299V74.7139H341.237V86.7384H341.373Z" fill="#3F3E3E"/>
<path d="M366.631 81.199H366.903L370.433 74.7139H375.457L369.618 83.6309L376 92.8181H370.705L366.631 85.9277H366.359L362.421 92.8181H357.261L363.644 83.4958L357.805 74.8491H362.829L366.631 81.199Z" fill="#3F3E3E"/>
<path d="M131.308 110.652H121.667V124.973H117.593V107.004H131.308V110.652Z" fill="#3F3E3E"/>
<path d="M145.838 107.41C146.653 107.68 147.468 108.22 148.146 108.761C148.825 109.301 149.233 109.977 149.64 110.787C150.048 111.598 150.183 112.409 150.183 113.489C150.183 114.57 150.048 115.516 149.64 116.327C149.233 117.137 148.69 117.813 148.011 118.353C147.332 118.894 146.517 119.299 145.566 119.704C144.616 119.974 143.665 120.11 142.579 120.11H138.913V124.973H134.839V107.004H142.851C144.073 107.004 145.023 107.139 145.838 107.41ZM142.579 116.462C143.665 116.462 144.48 116.191 145.159 115.651C145.702 115.111 146.11 114.435 146.11 113.489C146.11 112.544 145.838 111.868 145.295 111.328C144.752 110.787 143.937 110.517 142.851 110.517H139.049V116.462H142.579Z" fill="#3F3E3E"/>
<path d="M170.824 124.973H166.343L164.985 121.461H157.245L155.887 124.973H151.542L159.011 107.004H163.492L170.824 124.973ZM163.627 117.813L161.183 110.922H160.912L158.467 117.813H163.627Z" fill="#3F3E3E"/>
<path d="M178.564 114.03H186.44V107.004H190.513V124.973H186.44V117.813H178.564V124.973H174.49V107.004H178.564V114.03Z" fill="#3F3E3E"/>
<path d="M210.608 110.652H204.362V124.973H200.288V110.652H194.042V107.004H210.473V110.652H210.608Z" fill="#3F3E3E"/>
<path d="M226.766 107.275C227.989 107.815 228.939 108.355 229.754 109.301C230.569 110.112 231.248 111.193 231.655 112.273C232.062 113.354 232.334 114.705 232.334 116.056C232.334 117.407 232.062 118.623 231.655 119.704C231.248 120.785 230.569 121.866 229.618 122.677C228.803 123.487 227.717 124.163 226.631 124.703C225.409 125.244 224.187 125.379 222.693 125.379C221.335 125.379 219.977 125.109 218.891 124.703C217.669 124.298 216.718 123.622 215.903 122.677C215.089 121.866 214.41 120.785 213.867 119.704C213.459 118.623 213.188 117.272 213.188 116.056C213.188 114.705 213.459 113.489 213.867 112.409C214.274 111.328 214.953 110.247 215.903 109.436C216.718 108.626 217.804 107.95 218.891 107.41C220.113 106.869 221.335 106.734 222.693 106.734C224.322 106.599 225.544 106.869 226.766 107.275ZM220.52 110.652C219.841 110.922 219.298 111.328 218.755 111.868C218.212 112.409 217.94 112.949 217.669 113.76C217.397 114.435 217.261 115.246 217.261 116.056C217.261 116.867 217.397 117.678 217.669 118.353C217.94 119.029 218.348 119.704 218.755 120.245C219.298 120.785 219.841 121.19 220.52 121.461C221.199 121.731 222.014 121.866 222.829 121.866C223.643 121.866 224.458 121.731 225.137 121.461C225.816 121.19 226.359 120.785 226.902 120.245C227.445 119.704 227.717 119.164 227.989 118.353C228.26 117.678 228.396 116.867 228.396 116.192C228.396 115.381 228.26 114.57 227.989 113.895C227.717 113.219 227.31 112.544 226.902 112.003C226.359 111.463 225.816 111.057 225.137 110.787C224.458 110.517 223.643 110.382 222.829 110.382C222.014 110.247 221.199 110.382 220.52 110.652Z" fill="#3F3E3E"/>
<path d="M249.172 108.22C250.259 109.031 250.802 110.247 250.802 111.868C250.802 112.679 250.666 113.354 250.395 113.895C250.123 114.435 249.716 114.976 249.172 115.246V115.516C249.987 115.786 250.802 116.327 251.345 117.002C251.888 117.813 252.16 118.623 252.16 119.569C252.16 120.245 252.024 121.055 251.752 121.596C251.481 122.271 251.073 122.812 250.53 123.352C249.987 123.893 249.308 124.163 248.493 124.568C247.679 124.838 246.592 124.973 245.506 124.973H236.816V107.004H244.827C246.592 107.004 248.086 107.41 249.172 108.22ZM244.691 114.03C245.37 114.03 245.913 113.895 246.321 113.489C246.728 113.219 246.864 112.679 246.864 112.138C246.864 110.922 246.049 110.382 244.556 110.382H240.618V114.03H244.691ZM245.37 121.461C247.136 121.461 248.086 120.785 248.086 119.299C248.086 118.623 247.815 118.083 247.407 117.813C247 117.407 246.321 117.272 245.37 117.272H240.618V121.461H245.37Z" fill="#3F3E3E"/>
</svg>
