<svg width="122" height="109" viewBox="0 0 122 109" fill="none" xmlns="http://www.w3.org/2000/svg">
<path d="M60.8114 79.7462V60.8116M60.8114 60.8116V41.8771M60.8114 60.8116H41.8768M60.8114 60.8116H79.7459M4.00769 16.631V84.7954C4.00769 91.8649 4.00769 95.3973 5.38352 98.0975C6.59374 100.473 8.52341 102.408 10.8986 103.618C13.5962 104.992 17.1293 104.992 24.185 104.992H97.4377C104.493 104.992 108.021 104.992 110.719 103.618C113.094 102.408 115.03 100.474 116.241 98.0987C117.616 95.3985 117.616 91.8637 117.616 84.7941L117.616 36.8264C117.616 29.7569 117.616 26.2221 116.241 23.5219C115.03 21.1467 113.095 19.217 110.72 18.0068C108.02 16.631 104.488 16.631 97.4182 16.631H60.8114M4.00769 16.631H60.8114M4.00769 16.631C4.00769 9.65946 9.65922 4.00794 16.6307 4.00794H39.8225C42.91 4.00794 44.4574 4.00794 45.9101 4.35671C47.1981 4.66594 48.4272 5.17724 49.5566 5.86934C50.8301 6.64973 51.9236 7.74319 54.1054 9.92499L60.8114 16.631" stroke="#272727" stroke-width="8.01539" stroke-linecap="round" stroke-linejoin="round"/>
</svg>
